<?xml version="1.0" encoding="UTF-8" standalone="no"?>
<svg
   xmlns:dc="http://purl.org/dc/elements/1.1/"
   xmlns:cc="http://creativecommons.org/ns#"
   xmlns:rdf="http://www.w3.org/1999/02/22-rdf-syntax-ns#"
   xmlns:svg="http://www.w3.org/2000/svg"
   xmlns="http://www.w3.org/2000/svg"
   viewBox="0 0 666.66669 540.66669"
   height="540.66669"
   width="666.66669"
   xml:space="preserve"
   id="svg2"
   version="1.1"><metadata
     id="metadata8"><rdf:RDF><cc:Work
         rdf:about=""><dc:format>image/svg+xml</dc:format><dc:type
           rdf:resource="http://purl.org/dc/dcmitype/StillImage" /></cc:Work></rdf:RDF></metadata><defs
     id="defs6" /><g
     transform="matrix(1.3333333,0,0,-1.3333333,0,540.66667)"
     id="g10"><g
       transform="scale(0.1)"
       id="g12"><path
         id="path14"
         style="fill:#e7e8e5;fill-opacity:1;fill-rule:nonzero;stroke:none"
         d="M 5000,449.129 H 0 v 2.5 h 5000 v -2.5" /><path
         id="path16"
         style="fill:#e7e8e5;fill-opacity:1;fill-rule:nonzero;stroke:none"
         d="m 4167.79,290.668 h 331.22 v -2.5 h -331.22 v 2.5" /><path
         id="path18"
         style="fill:#e7e8e5;fill-opacity:1;fill-rule:nonzero;stroke:none"
         d="m 2603.35,322.012 h 128.87 v -2.5 h -128.87 v 2.5" /><path
         id="path20"
         style="fill:#e7e8e5;fill-opacity:1;fill-rule:nonzero;stroke:none"
         d="m 3225.27,311.441 h 271.4 v -2.5 h -271.4 v 2.5" /><path
         id="path22"
         style="fill:#e7e8e5;fill-opacity:1;fill-rule:nonzero;stroke:none"
         d="m 3596.67,383.531 h 561.11 v -2.5 h -561.11 v 2.5" /><path
         id="path24"
         style="fill:#e7e8e5;fill-opacity:1;fill-rule:nonzero;stroke:none"
         d="m 524.59,267.84 h 265.265 v -2.5 H 524.59 v 2.5" /><path
         id="path26"
         style="fill:#e7e8e5;fill-opacity:1;fill-rule:nonzero;stroke:none"
         d="m 878.891,267.84 h 229.999 v -2.5 H 878.891 v 2.5" /><path
         id="path28"
         style="fill:#e7e8e5;fill-opacity:1;fill-rule:nonzero;stroke:none"
         d="M 1918.14,320.762 H 1310 v 2.5 h 608.14 v -2.5" /><path
         id="path30"
         style="fill:#e7e8e5;fill-opacity:1;fill-rule:nonzero;stroke:none"
         d="m 439.152,3723.59 c -30.101,0 -54.582,-24.49 -54.582,-54.58 V 954.699 c 0,-30.097 24.481,-54.578 54.582,-54.578 H 2370.14 c 30.08,0 54.57,24.481 54.57,54.578 V 3669.01 c 0,30.09 -24.49,54.58 -54.57,54.58 H 439.152 M 2370.14,897.621 H 439.152 c -31.476,0 -57.082,25.598 -57.082,57.078 V 3669.01 c 0,31.47 25.606,57.08 57.082,57.08 H 2370.14 c 31.46,0 57.07,-25.61 57.07,-57.08 V 954.699 c 0,-31.48 -25.61,-57.078 -57.07,-57.078" /><path
         id="path32"
         style="fill:#e7e8e5;fill-opacity:1;fill-rule:nonzero;stroke:none"
         d="m 2602.12,3723.59 c -30.09,0 -54.57,-24.49 -54.57,-54.58 V 954.699 c 0,-30.097 24.48,-54.578 54.57,-54.578 h 1930.99 c 30.09,0 54.58,24.481 54.58,54.578 V 3669.01 c 0,30.09 -24.49,54.58 -54.58,54.58 H 2602.12 M 4533.11,897.621 H 2602.12 c -31.47,0 -57.07,25.598 -57.07,57.078 V 3669.01 c 0,31.47 25.6,57.08 57.07,57.08 h 1930.99 c 31.47,0 57.08,-25.61 57.08,-57.08 V 954.699 c 0,-31.48 -25.61,-57.078 -57.08,-57.078" /><path
         id="path34"
         style="fill:#e7e8e5;fill-opacity:1;fill-rule:nonzero;stroke:none"
         d="m 4670.63,2333.9 c 32.55,112.84 26.58,227.59 -9.91,330.44 28.52,40.83 51.03,86.88 65.61,137.42 66.96,232.17 -55.15,474.02 -275.39,561.06 -42.49,304.15 -258.37,570 -572.51,660.61 -248.37,71.63 -503.07,17.77 -696.71,-123.9 -48.46,50.72 -110.48,89.76 -182.74,110.6 -217.81,62.82 -445.31,-62.83 -508.13,-280.64 -10.5,-36.42 -15.62,-73.11 -16.04,-109.27 -219.18,-44.15 -406.89,-205.71 -473.13,-435.4 -59.51,-206.34 -6.84,-418.39 121.92,-571.09 -16.64,-30.07 -30.3,-62.37 -40.23,-96.8 -71.31,-247.25 71.32,-505.52 318.58,-576.82 81.53,-23.52 164.21,-23.65 241.04,-4.55 90.9,-125.34 222.56,-222.52 382.85,-268.75 206.25,-59.49 417.37,-22.48 585.41,84.15 75.2,-174.95 137.03,-437.33 3.97,-694.62 483.44,47.41 832.56,511.12 761.41,935.96 137.95,63.49 248.62,184.22 294,341.6" /><path
         id="path36"
         style="fill:#ffffff;fill-opacity:1;fill-rule:nonzero;stroke:none"
         d="m 3647.66,1878.81 c 0.99,0 1.98,-0.15 2.95,-0.45 2.8,-0.86 5.07,-2.91 6.23,-5.61 l 37.08,-86.25 c 63.77,-148.3 125.53,-372.93 63.7,-609.33 150.06,47.89 285.98,144.12 384.26,272.44 122.22,159.6 175.43,351.99 145.98,527.83 l -10.1,60.32 c -0.75,4.46 1.58,8.85 5.68,10.73 l 55.56,25.57 c 119.46,54.98 208.82,158.77 245.17,284.78 26.24,90.99 23.38,186.22 -8.27,275.4 l -13.77,38.82 c -1.08,3.03 -0.62,6.41 1.23,9.06 l 23.58,33.76 c 23.67,33.88 41.47,71.17 52.91,110.82 53.83,186.63 -41.6,381.13 -221.98,452.42 l -43.38,17.15 c -3.35,1.32 -5.73,4.34 -6.22,7.91 l -6.45,46.18 c -38.92,278.5 -238.45,508.75 -508.33,586.59 -64.62,18.64 -131.1,28.08 -197.61,28.08 -149.75,0 -299.27,-49.07 -421.02,-138.14 l -56.62,-41.41 c -4.06,-2.97 -9.67,-2.46 -13.14,1.16 l -48.46,50.72 c -38.95,40.78 -88.27,70.62 -142.61,86.29 -29.1,8.4 -59.04,12.66 -88.99,12.66 -141.82,0 -268.36,-95.31 -307.71,-231.77 -7.98,-27.66 -12.19,-56.37 -12.52,-85.34 l -0.73,-64.74 c -0.05,-4.71 -3.4,-8.75 -8.03,-9.69 l -63.46,-12.78 c -194.56,-39.18 -349.53,-181.77 -404.44,-372.11 -49.04,-170.07 -10.07,-352.55 104.26,-488.13 l 35.51,-42.11 c 2.68,-3.17 3.11,-7.66 1.11,-11.29 l -26.68,-48.21 c -13.8,-24.92 -24.73,-51.22 -32.51,-78.15 -27.82,-96.47 -16.41,-198.03 32.14,-285.94 48.55,-87.91 128.43,-151.65 224.91,-179.47 63.49,-18.3 130.63,-19.54 194.4,-3.68 l 52.37,13.02 c 3.94,1 8.11,-0.52 10.51,-3.84 l 31.68,-43.68 c 83.1,-114.58 198.92,-195.89 334.93,-235.12 57.12,-16.47 115.88,-24.82 174.67,-24.82 119.31,0 236.03,34.06 337.57,98.49 l 79.28,50.31 c 1.62,1.02 3.48,1.55 5.36,1.55 m 95.51,-726.52 c -2.6,0 -5.15,1.02 -7.05,2.91 -2.59,2.57 -3.56,6.35 -2.56,9.86 68.1,237.17 6.04,464.56 -58,613.55 l -32.46,75.47 -69.36,-44.02 c -104.75,-66.47 -225.19,-101.6 -348.29,-101.6 -60.66,0 -121.3,8.61 -180.21,25.6 -140.34,40.48 -259.83,124.37 -345.58,242.6 l -27.73,38.22 -45.82,-11.39 c -67.17,-16.7 -137.91,-15.39 -204.76,3.87 -101.61,29.31 -185.74,96.44 -236.88,189.03 -51.14,92.58 -63.15,199.53 -33.85,301.15 8.19,28.37 19.71,56.06 34.23,82.29 l 23.34,42.18 -31.07,36.85 c -118.64,140.69 -159.09,330.07 -108.18,506.57 56.97,197.54 217.79,345.51 419.7,386.17 l 55.53,11.18 0.64,56.65 c 0.35,30.77 4.82,61.27 13.3,90.66 41.81,144.97 176.25,246.22 326.93,246.22 31.82,0 63.64,-4.52 94.54,-13.44 57.73,-16.65 110.13,-48.36 151.52,-91.7 l 42.41,-44.37 49.54,36.23 c 125.15,91.57 278.87,142 432.83,142 68.38,0 136.73,-9.71 203.15,-28.86 277.45,-80.03 482.59,-316.74 522.59,-603.04 l 5.65,-40.41 37.95,-15.01 c 190.01,-75.09 290.55,-279.97 233.85,-476.56 -12.05,-41.77 -30.8,-81.03 -55.73,-116.72 l -20.63,-29.54 12.04,-33.97 c 33.05,-93.14 36.04,-192.59 8.63,-287.63 -37.96,-131.59 -131.27,-239.99 -256.02,-297.39 l -48.61,-22.38 8.84,-52.78 c 30.36,-181.29 -24.25,-379.31 -149.84,-543.3 -104.6,-136.57 -250.83,-237.7 -411.77,-284.75 -0.93,-0.27 -1.87,-0.4 -2.81,-0.4" /><path
         id="path38"
         style="fill:#ffffff;fill-opacity:1;fill-rule:nonzero;stroke:none"
         d="m 2753.6,2785.63 287.08,-44.69 -39.42,-253.23 -287.08,44.7 z m 288.31,28.1 -268.05,41.73 4.17,26.79 c 7.11,45.62 18.04,81.84 32.82,108.69 14.77,26.84 34.22,50.41 58.33,70.75 24.12,20.32 76.53,54.55 157.23,102.67 42.93,25.11 66.4,50.59 70.42,76.45 4.03,25.86 -0.48,47.15 -13.53,63.88 -13.05,16.72 -35.09,27.5 -66.13,32.33 -33.39,5.21 -62.74,-1.55 -88.04,-20.23 -25.31,-18.72 -45.31,-55.08 -59.98,-109.16 l -268.41,76.46 c 25.07,99.17 74.23,174.48 147.52,225.92 73.27,51.45 175.74,66.92 307.41,46.42 102.51,-15.95 181.94,-50.25 238.29,-102.84 76.58,-71.15 107.36,-154.96 92.36,-251.34 -6.23,-39.98 -23.29,-76.81 -51.17,-110.52 -27.89,-33.71 -80.09,-72.06 -156.62,-115.05 -53.36,-30.24 -88.04,-55.77 -104.05,-76.64 -16.01,-20.86 -26.87,-49.64 -32.57,-86.31" /><path
         id="path40"
         style="fill:#ffffff;fill-opacity:1;fill-rule:nonzero;stroke:none"
         d="m 3539.98,2506.48 159.38,-129.11 -113.88,-140.58 -159.38,129.11 z m 185.95,-85.11 -148.82,120.54 12.05,14.89 c 20.52,25.32 40.04,43.55 58.58,54.69 18.54,11.16 38.77,18.65 60.71,22.5 21.92,3.86 66.05,6.17 132.38,6.91 35.12,0.1 58.47,7.33 70.11,21.69 11.63,14.35 16.42,28.95 14.39,43.79 -2.03,14.84 -11.66,29.23 -28.89,43.19 -18.54,15.02 -38.85,21.31 -60.92,18.88 -22.09,-2.45 -47.19,-17.55 -75.33,-45.37 l -136.72,141.89 c 50.47,51.64 107.2,80.18 170.18,85.58 62.97,5.42 131.01,-21.48 204.11,-80.7 56.92,-46.1 93.23,-95.2 108.98,-147.3 21.51,-70.6 10.57,-132.67 -32.77,-186.17 -17.98,-22.2 -41.46,-38.64 -70.44,-49.33 -28.98,-10.68 -74.45,-15.58 -136.41,-14.67 -43.29,0.47 -73.52,-2.81 -90.69,-9.88 -17.18,-7.05 -34.01,-20.76 -50.5,-41.13" /><path
         id="path42"
         style="fill:#ffffff;fill-opacity:1;fill-rule:nonzero;stroke:none"
         d="m 3677.54,3361.41 68.98,-94.2 -83.08,-60.84 -68.99,94.2 z m 89.99,-73.83 -64.41,87.95 8.79,6.43 c 14.97,10.97 28.36,18.17 40.18,21.61 11.83,3.44 24.05,4.63 36.68,3.58 12.63,-1.07 37.26,-6.2 73.87,-15.42 19.34,-5.04 33.25,-4.46 41.74,1.75 8.48,6.23 13.24,13.56 14.28,22.02 1.03,8.46 -2.18,17.79 -9.64,27.96 -8.02,10.96 -18.29,17.38 -30.79,19.24 -12.51,1.86 -28.52,-2.81 -48.05,-14.03 l -54.65,97.94 c 35.28,21.09 70.64,28.57 106.09,22.4 35.45,-6.16 68.99,-30.84 100.63,-74.04 24.64,-33.64 37.5,-65.94 38.6,-96.9 1.59,-41.98 -13.43,-74.55 -45.06,-97.72 -13.12,-9.61 -28.42,-15.24 -45.93,-16.92 -17.5,-1.67 -43.24,2.23 -77.21,11.73 -23.76,6.54 -40.88,9.12 -51.35,7.72 -10.48,-1.39 -21.73,-6.49 -33.77,-15.3" /><path
         id="path44"
         style="fill:#e2e2e0;fill-opacity:1;fill-rule:nonzero;stroke:none"
         d="m 957.266,3535.8 c -90.317,0 -178.422,-29.78 -251.754,-86.77 -128.239,-99.65 -186.032,-266.05 -147.231,-423.92 0.672,-2.75 -0.179,-5.65 -2.234,-7.59 -88.602,-83.56 -98.992,-219.19 -24.168,-315.48 15.902,-20.46 34.957,-38.06 56.637,-52.3 2.121,-1.39 3.437,-3.72 3.535,-6.25 2.242,-57.71 22.168,-112.33 57.629,-157.96 49.09,-63.18 123.191,-101.78 203.3,-105.92 3.536,-0.18 6.512,-2.71 7.258,-6.16 22.098,-101.73 91.914,-194.13 191.552,-253.52 102.76,-61.25 224.52,-79.68 336.29,-51.43 -107.31,100.38 -127.25,236.6 -124.68,334.66 0.06,2.3 1.13,4.46 2.91,5.9 1.8,1.44 4.11,2.01 6.39,1.61 103.86,-19.51 211.19,6.43 294.47,71.14 65.45,50.85 110.78,120.2 131.1,200.55 0.78,3.11 3.37,5.42 6.54,5.85 40.92,5.62 79.81,21.99 112.48,47.37 102.71,79.83 121.34,228.33 41.52,331.04 -10.77,13.87 -23.25,26.65 -37.09,37.97 -2.52,2.06 -3.5,5.46 -2.48,8.54 33.39,100.51 14.6,210.35 -50.28,293.83 -72.6,93.43 -190.11,138.18 -306.7,116.88 -3.66,-0.68 -7.26,1.3 -8.67,4.72 -7.12,17.27 -16.51,33.47 -27.93,48.16 -33.9,43.63 -82.77,71.45 -137.6,78.33 -54.83,6.92 -109.06,-8.01 -152.69,-41.91 -28.83,-22.41 -51.26,-52.12 -64.87,-85.91 -1.47,-3.66 -5.45,-5.65 -9.23,-4.67 -34.52,8.87 -69.43,13.24 -104.004,13.24 z M 1283.35,2039.87 c -82.69,0 -165.87,22.65 -239.59,66.58 -101.471,60.47 -173.178,154.2 -197.545,257.86 -82.371,5.92 -158.254,46.37 -208.93,111.59 -36.66,47.18 -57.613,103.44 -60.73,162.97 -21.746,14.77 -40.93,32.78 -57.067,53.54 -78.875,101.5 -68.965,244 22.489,333.36 -38.129,162.57 21.976,333.14 153.906,435.64 103.488,80.43 235.312,108.69 362.717,77.98 14.82,33.76 37.93,63.44 67.14,86.14 46.95,36.47 105.28,52.48 164.27,45.1 58.99,-7.41 111.57,-37.34 148.05,-84.28 10.99,-14.15 20.24,-29.6 27.55,-46.01 120.34,19.7 240.83,-27.32 315.75,-123.75 66.99,-86.21 87.17,-199.22 54.43,-303.3 13.11,-11.2 25.01,-23.63 35.42,-37.04 85.12,-109.54 65.25,-267.92 -44.3,-353.05 -33.44,-25.99 -73.02,-43.14 -114.75,-49.76 -21.79,-81.61 -68.51,-152.07 -135.36,-204.02 -84.39,-65.58 -192.46,-92.96 -297.88,-75.78 -1.06,-97.15 21.52,-228.85 130.25,-323.01 2.17,-1.87 3.14,-4.79 2.53,-7.6 -0.62,-2.82 -2.72,-5.06 -5.48,-5.86 -39.98,-11.59 -81.37,-17.29 -122.87,-17.3" /><path
         id="path46"
         style="fill:#e7e8e5;fill-opacity:1;fill-rule:nonzero;stroke:none"
         d="m 871.734,2805.69 147.946,34.84 30.72,-130.5 -147.943,-34.84 z m 134.216,70.35 -138.137,-32.52 -3.25,13.81 c -5.536,23.51 -7.364,43.23 -5.485,59.14 1.879,15.92 6.668,31.18 14.356,45.77 7.687,14.6 26.355,41.51 56.004,80.71 15.863,20.62 22.226,37.59 19.085,50.92 -3.136,13.32 -9.515,22.75 -19.125,28.3 -9.621,5.53 -22.421,6.42 -38.418,2.65 -17.21,-4.05 -30.105,-13.09 -38.691,-27.14 -8.59,-14.04 -11.125,-35.6 -7.594,-64.7 l -145.148,-15.76 c -7.363,52.99 1.648,99.17 27.047,138.53 25.386,39.37 72.011,67.02 139.863,83 52.832,12.44 98.078,11.45 135.743,-2.96 51.12,-19.41 82.53,-53.97 94.23,-103.64 4.85,-20.61 3.83,-41.82 -3.05,-63.65 -6.89,-21.83 -24.64,-50.69 -53.28,-86.59 -19.91,-25.15 -31.7,-44.35 -35.35,-57.61 -3.65,-13.27 -3.25,-29.35 1.2,-48.26" /><path
         id="path48"
         style="fill:#e7e8e5;fill-opacity:1;fill-rule:nonzero;stroke:none"
         d="m 1250.65,3172.39 102.67,-31.21 -27.54,-90.56 -102.66,31.22 z m 106.88,-4.66 -95.85,29.15 2.91,9.58 c 4.96,16.31 10.84,29 17.63,38.04 6.8,9.05 15.13,16.67 25,22.85 9.87,6.19 30.81,15.99 62.81,29.41 17,6.95 26.9,15.06 29.71,24.3 2.81,9.25 2.27,17.27 -1.64,24.07 -3.9,6.78 -11.4,11.87 -22.5,15.24 -11.95,3.63 -23.03,2.68 -33.25,-2.84 -10.22,-5.53 -19.42,-17.8 -27.58,-36.81 l -94.19,41.87 c 14.3,34.96 36.18,59.96 65.64,74.97 29.46,15.02 67.73,15.37 114.82,1.05 36.66,-11.14 63.93,-27.8 81.81,-49.95 24.32,-29.99 31.23,-62.23 20.75,-96.69 -4.35,-14.29 -12.49,-26.88 -24.43,-37.77 -11.95,-10.88 -33.02,-22.2 -63.23,-33.96 -21.08,-8.29 -35.09,-15.83 -42.02,-22.63 -6.94,-6.8 -12.4,-16.76 -16.39,-29.88" /><path
         id="path50"
         style="fill:#f3f2f1;fill-opacity:1;fill-rule:nonzero;stroke:none"
         d="M 4438.89,113.23 C 4438.89,50.6914 3570.83,0 2500,0 1429.18,0 561.109,50.6914 561.109,113.23 c 0,62.54 868.071,113.231 1938.891,113.231 1070.83,0 1938.89,-50.691 1938.89,-113.231" /><path
         id="path52"
         style="fill:#406fbf;fill-opacity:1;fill-rule:nonzero;stroke:none"
         d="m 1572.19,1915.78 c -19.4,42.63 -55.47,69.51 -104.3,77.74 l 1.66,9.87 c 52.26,-8.81 90.9,-37.68 111.74,-83.47 z m 3.93,-114.55 -9.21,3.91 c 8.27,19.54 13.03,35.75 14.54,49.55 l 9.94,-1.1 c -1.62,-14.78 -6.62,-31.9 -15.27,-52.36" /><path
         id="path54"
         style="fill:#406fbf;fill-opacity:1;fill-rule:nonzero;stroke:none"
         d="m 1429.99,1628.17 105.37,47.97 42.31,-92.94 -105.37,-47.98 z m 89.84,72.47 -98.39,-44.78 -4.47,9.83 c -7.63,16.75 -11.92,31.2 -12.87,43.37 -0.96,12.18 0.35,24.28 3.93,36.34 3.58,12.04 13.53,34.91 29.87,68.6 8.8,17.77 11.03,31.38 6.71,40.87 -4.32,9.49 -10.48,15.6 -18.49,18.31 -8.01,2.72 -17.7,1.48 -29.1,-3.71 -12.25,-5.57 -20.55,-14.26 -24.88,-26.01 -4.33,-11.77 -3.03,-28.27 3.93,-49.49 l -106.12,-33.3 c -13.36,38.51 -13.48,74.35 -0.34,107.52 13.13,33.18 43.86,60.76 92.19,82.77 37.63,17.12 71.58,23.1 101.86,17.93 41.08,-6.93 69.67,-28.09 85.78,-63.47 6.68,-14.68 9.07,-30.68 7.16,-48.01 -1.9,-17.32 -10.89,-41.52 -26.96,-72.59 -11.14,-21.75 -17.1,-37.85 -17.86,-48.3 -0.76,-10.46 1.92,-22.41 8.05,-35.88" /><path
         id="path56"
         style="fill:#406fbf;fill-opacity:1;fill-rule:nonzero;stroke:none"
         d="m 1242.71,1394.73 53.6,72.77 64.19,-47.29 -53.61,-72.77 z m 33.7,83.57 -50.06,-67.95 -6.79,5.01 c -11.56,8.52 -19.98,16.74 -25.26,24.68 -5.28,7.93 -8.99,16.69 -11.13,26.27 -2.14,9.57 -4.05,28.94 -5.72,58.13 -0.76,15.45 -4.41,25.59 -10.97,30.42 -6.55,4.83 -13.07,6.64 -19.56,5.45 -6.49,-1.19 -12.64,-5.72 -18.43,-13.59 -6.24,-8.47 -8.59,-17.53 -7.08,-27.2 1.52,-9.68 8.68,-20.42 21.49,-32.25 l -59.69,-63.04 c -23.75,21.17 -37.46,45.56 -41.11,73.17 -3.66,27.62 6.81,58.11 31.39,91.49 19.15,25.98 40.03,42.96 62.64,50.94 30.64,10.9 58.18,7.35 82.62,-10.65 10.13,-7.47 17.84,-17.47 23.13,-30.01 5.29,-12.54 8.36,-32.46 9.22,-59.75 0.67,-19.07 2.72,-32.31 6.18,-39.72 3.45,-7.43 9.83,-14.55 19.13,-21.4" /><path
         id="path58"
         style="fill:#406fbf;fill-opacity:1;fill-rule:nonzero;stroke:none"
         d="m 2340.88,149.262 c -16.23,0 -31.9,8.828 -39.87,24.238 -40.18,77.629 -90.67,168.73 -181.54,267.328 -10.63,11.524 -14.46,27.762 -10.12,42.82 33.75,117.114 86.71,277.192 87.24,278.793 7.79,23.539 33.17,36.258 56.68,28.477 23.52,-7.789 36.27,-33.168 28.48,-56.68 -0.49,-1.488 -46.11,-139.379 -79.23,-251.566 83.52,-94.723 135.01,-184.582 178.16,-267.934 11.39,-22 2.79,-49.07 -19.21,-60.449 -6.6,-3.418 -13.64,-5.027 -20.59,-5.027" /><path
         id="path60"
         style="fill:#17282f;fill-opacity:1;fill-rule:nonzero;stroke:none"
         d="m 2415.61,113.23 h -347.89 l 184.36,104.579 154.55,-5.981 8.98,-98.598" /><path
         id="path62"
         style="fill:#17282f;fill-opacity:1;fill-rule:nonzero;stroke:none"
         d="m 2604.15,801.281 c 1.19,-139.351 -130.46,-265.301 -294.04,-281.332 -163.59,-16.027 -297.16,83.949 -298.36,223.289 -1.19,139.352 130.46,265.292 294.05,281.322 163.58,16.03 297.16,-83.951 298.35,-223.279" /><path
         id="path64"
         style="fill:#17282f;fill-opacity:1;fill-rule:nonzero;stroke:none"
         d="m 1516.53,935.801 c -17.6,-0.012 -34.3,10.418 -41.46,27.687 -9.48,22.903 1.39,49.142 24.28,58.622 26.05,10.79 29.67,37.43 29.7,37.69 1.88,20.05 16.88,36.39 36.7,39.95 10.69,1.94 21.01,4.96 32.97,8.45 60.78,17.76 136.05,39.77 373.1,-26.62 233.81,130.76 236.47,375.97 236.47,386.55 -0.01,24.72 19.98,44.86 44.7,44.94 h 0.15 c 24.65,0 44.7,-19.82 44.85,-44.49 0.09,-13.02 -1.36,-320.83 -300.42,-474.99 -10.19,-5.25 -21.98,-6.422 -33,-3.219 -225.95,65.249 -289.57,46.659 -340.68,31.719 -4.53,-1.32 -9.11,-2.67 -13.8,-3.97 -11.07,-28.46 -34.11,-61.37 -76.41,-78.901 -5.61,-2.328 -11.43,-3.418 -17.15,-3.418" /><path
         id="path66"
         style="fill:#406fbf;fill-opacity:1;fill-rule:nonzero;stroke:none"
         d="m 2040.81,1256.7 c -85.06,338.25 -311.84,1210.61 414.67,1263.94 651.78,47.85 830.67,-819.7 874.15,-1120.25 25.34,-175.17 33.85,-334.04 35.34,-458.191 1.91,-160.148 -110.6,-298.25 -267.56,-330.129 -355.11,-72.121 -691.16,-82.371 -917.48,6.95 -61.2,24.16 -98.22,86.519 -92.33,152.05 8.72,97.16 8.88,264.26 -46.79,485.63" /><path
         id="path68"
         style="fill:#e0e1de;fill-opacity:1;fill-rule:nonzero;stroke:none"
         d="m 3192.68,647.02 c 92.51,50.992 156.75,143.691 169.84,250.601 h 0.03 C 3349.45,790.691 3285.21,697.98 3192.68,647.02 m 170.17,253.101 h -0.03 c 1.58,13.809 2.32,27.848 2.15,42.078 -1.23,102.941 -7.3,229.761 -23.78,369.941 16.51,-140.21 22.57,-267.02 23.81,-369.921 0.17,-14.231 -0.57,-28.278 -2.15,-42.098" /><path
         id="path70"
         style="fill:#cccdcb;fill-opacity:1;fill-rule:nonzero;stroke:none"
         d="m 3362.55,897.621 h -0.03 c 0.1,0.828 0.2,1.66 0.3,2.5 h 0.03 c -0.1,-0.84 -0.2,-1.672 -0.3,-2.5" /><path
         id="path72"
         style="fill:#3b69bb;fill-opacity:1;fill-rule:nonzero;stroke:none"
         d="m 2758,562.512 c -90.21,185.828 13.45,317.808 33.85,483.098 44.8,363.3 -251.85,1030 -376.25,1222.9 -37.71,58.46 -38.53,117.6 -13.34,166.37 27.95,54.12 85.39,85.83 145.77,85.83 4.97,0 9.97,-0.22 14.97,-0.65 564.39,-49.22 725.63,-836.4 766.6,-1119.64 4.34,-29.93 8.19,-59.39 11.59,-88.28 16.48,-140.18 22.55,-267 23.78,-369.941 0.17,-14.23 -0.57,-28.269 -2.15,-42.078 -0.1,-0.84 -0.2,-1.672 -0.3,-2.5 C 3349.43,790.711 3285.19,698.012 3192.68,647.02 3163.5,630.941 3131.5,619.031 3097.4,612.121 2981.1,588.418 2866.9,571.512 2758,562.512" /><path
         id="path74"
         style="fill:#17282f;fill-opacity:1;fill-rule:nonzero;stroke:none"
         d="m 3232.39,937.711 c -2.45,0 -4.46,1.98 -4.48,4.437 -1.85,154.522 -13.73,308.482 -35.3,457.592 -107.99,746.53 -398.75,1124.09 -840.97,1091.51 -2.41,-0.29 -4.62,1.67 -4.8,4.14 -0.18,2.47 1.68,4.63 4.15,4.8 447.52,33.01 741.72,-347.22 850.5,-1099.16 21.63,-149.5 33.53,-303.86 35.39,-458.792 0.03,-2.468 -1.96,-4.5 -4.43,-4.527 h -0.06" /><path
         id="path76"
         style="fill:#17282f;fill-opacity:1;fill-rule:nonzero;stroke:none"
         d="m 3447.44,777.352 c 1.19,-139.34 -130.46,-265.293 -294.04,-281.321 -163.59,-16.019 -297.16,83.949 -298.35,223.297 -1.2,139.332 130.45,265.293 294.04,281.312 163.58,16.03 297.16,-83.941 298.35,-223.288" /><path
         id="path78"
         style="fill:#406fbf;fill-opacity:1;fill-rule:nonzero;stroke:none"
         d="m 3252.95,149.262 c -16.23,0 -31.9,8.828 -39.87,24.238 -40.18,77.629 -90.67,168.719 -181.54,267.328 -10.62,11.531 -14.46,27.762 -10.11,42.82 33.74,117.114 86.7,277.192 87.23,278.793 7.79,23.528 33.13,36.321 56.69,28.477 23.52,-7.789 36.27,-33.168 28.48,-56.68 -0.5,-1.488 -46.12,-139.379 -79.24,-251.566 83.53,-94.723 135.01,-184.582 178.16,-267.934 11.39,-22 2.79,-49.07 -19.21,-60.449 -6.6,-3.418 -13.64,-5.027 -20.59,-5.027" /><path
         id="path80"
         style="fill:#17282f;fill-opacity:1;fill-rule:nonzero;stroke:none"
         d="m 3158.76,1516.55 c -16.14,0 -31.73,8.73 -39.76,24.02 -11.49,21.89 -3.09,48.95 18.75,60.5 8.65,4.6 203.95,111.35 258.78,367.7 -130.21,54.45 -364.23,177.38 -415.4,239.17 -4.95,5.98 -8.27,13.15 -9.62,20.81 -1.2,6.75 -9.62,59.78 10.01,110.02 l -23.62,45.61 c -11.39,22.01 -2.79,49.07 19.21,60.46 22,11.36 49.07,2.8 60.46,-19.21 l 33.98,-65.62 c 7.26,-14.03 6.61,-30.85 -1.73,-44.28 -10.73,-17.29 -12.06,-42.62 -11.19,-59.12 57.63,-52.06 290.41,-175.43 404.27,-217.7 19.98,-7.42 31.98,-27.87 28.72,-48.92 -50.72,-327.67 -301.41,-462.71 -312.05,-468.29 -6.65,-3.5 -13.78,-5.15 -20.81,-5.15" /><path
         id="path82"
         style="fill:#17282f;fill-opacity:1;fill-rule:nonzero;stroke:none"
         d="m 3015.66,2214.12 c -4.21,0 -8.46,1.18 -12.25,3.65 -10.37,6.78 -13.28,20.68 -6.51,31.05 1.55,2.37 38.63,58.3 95.03,73.41 11.95,3.23 24.27,-3.9 27.47,-15.86 3.21,-11.97 -3.89,-24.26 -15.86,-27.46 -39.38,-10.56 -68.8,-54.18 -69.09,-54.62 -4.3,-6.59 -11.47,-10.17 -18.79,-10.17" /><path
         id="path84"
         style="fill:#17282f;fill-opacity:1;fill-rule:nonzero;stroke:none"
         d="m 3327.68,113.23 h -347.89 l 184.36,104.579 154.56,-5.981 8.97,-98.598" /><path
         id="path86"
         style="fill:#ffffff;fill-opacity:1;fill-rule:nonzero;stroke:none"
         d="m 2818.38,1688.48 c 10.48,-118.45 -87.71,-223.92 -219.32,-235.57 -131.61,-11.64 -246.8,74.93 -257.28,193.38 -10.49,118.45 87.7,223.91 219.31,235.56 131.62,11.65 246.8,-74.93 257.29,-193.37" /><path
         id="path88"
         style="fill:#17282f;fill-opacity:1;fill-rule:nonzero;stroke:none"
         d="m 2584.99,1664.46 c 18.09,-63.5 4.46,-123.05 -30.46,-133.01 -34.91,-9.95 -77.89,33.47 -95.99,96.99 -18.09,63.5 -4.46,123.06 30.46,133 34.91,9.96 77.89,-33.46 95.99,-96.98" /><path
         id="path90"
         style="fill:#17282f;fill-opacity:1;fill-rule:nonzero;stroke:none"
         d="m 2307.95,1627.01 c 151.02,19.44 450.06,104.67 499.4,139.05 -38.88,113.64 -219.59,210.82 -381.28,156.09 -145.75,-49.35 -118.12,-295.14 -118.12,-295.14" /><path
         id="path92"
         style="fill:#17282f;fill-opacity:1;fill-rule:nonzero;stroke:none"
         d="m 2337.34,1554.01 c 187.42,35.62 431.13,95.43 500.84,133.75 -4.3,-122.28 -39.8,-246.15 -231.19,-288.02 -156.37,-34.2 -269.65,154.27 -269.65,154.27" /><path
         id="path94"
         style="fill:#ffffff;fill-opacity:1;fill-rule:nonzero;stroke:none"
         d="m 2239.89,1565.57 c 5.64,-95.71 -61.32,-161.44 -149.56,-146.83 -88.24,14.61 -164.34,104.03 -169.98,199.74 -5.64,95.69 61.32,161.42 149.56,146.81 88.24,-14.61 164.34,-104.03 169.98,-199.72" /><path
         id="path96"
         style="fill:#17282f;fill-opacity:1;fill-rule:nonzero;stroke:none"
         d="m 2083.37,1588.82 c 11.38,-53.58 1.55,-98.26 -21.93,-99.82 -23.49,-1.56 -51.76,40.61 -63.13,94.18 -11.38,53.58 -1.55,98.26 21.93,99.83 23.49,1.55 51.75,-40.62 63.13,-94.19" /><path
         id="path98"
         style="fill:#17282f;fill-opacity:1;fill-rule:nonzero;stroke:none"
         d="m 1897.48,1609.33 c 101.32,-11.96 302.5,1.38 335.93,19.67 -24.7,97.03 -144.54,206.73 -253.42,192.66 -98.14,-12.69 -82.51,-212.33 -82.51,-212.33" /><path
         id="path100"
         style="fill:#17282f;fill-opacity:1;fill-rule:nonzero;stroke:none"
         d="m 1916.3,1546.2 c 125.88,-5.73 289.73,-2.51 336.84,15.21 -4.3,-96.06 -29.51,-187.72 -158.12,-186.22 -105.08,1.23 -178.72,171.01 -178.72,171.01" /><path
         id="path102"
         style="fill:#17282f;fill-opacity:1;fill-rule:nonzero;stroke:none"
         d="m 2640.88,1982.62 c -188.85,0 -314.42,93.3 -320.58,97.97 -19.74,14.98 -23.61,43.11 -8.64,62.86 14.95,19.68 43.01,23.57 62.73,8.71 2.17,-1.59 151.34,-110.36 358.39,-71.12 24.35,4.57 47.82,-11.38 52.43,-35.71 4.61,-24.34 -11.38,-47.81 -35.71,-52.43 -38.05,-7.22 -74.39,-10.28 -108.62,-10.28" /><path
         id="path104"
         style="fill:#17282f;fill-opacity:1;fill-rule:nonzero;stroke:none"
         d="m 1838.78,2059.95 c -5.04,-0.01 -10.16,0.85 -15.17,2.65 -23.31,8.38 -35.42,34.07 -27.04,57.38 23.78,66.19 63.21,109.17 117.2,127.73 97.87,33.71 203.27,-31.82 207.7,-34.63 20.95,-13.24 27.2,-40.94 13.97,-61.88 -13.2,-20.89 -40.83,-27.18 -61.75,-14.04 -20.42,12.7 -83.74,42.05 -131,25.63 -27.24,-9.46 -47.42,-33.4 -61.7,-73.14 -6.57,-18.3 -23.82,-29.7 -42.21,-29.7" /><path
         id="path106"
         style="fill:#17282f;fill-opacity:1;fill-rule:nonzero;stroke:none"
         d="m 2192.31,1303.15 c -1.24,0 -2.49,0.17 -3.74,0.54 -7.06,2.06 -11.18,9.33 -9.21,16.43 0.34,1.22 8.77,30.27 45.62,49.28 51.46,26.54 129.88,21.05 233.09,-16.32 6.98,-2.52 10.6,-10.25 8.07,-17.23 -2.53,-7 -10.25,-10.64 -17.23,-8.08 -118.35,42.87 -179.78,33.61 -210.49,18.27 -26.8,-13.38 -32.93,-32.49 -33.18,-33.3 -1.78,-5.8 -7.14,-9.59 -12.93,-9.59" /><path
         id="path108"
         style="fill:#406fbf;fill-opacity:1;fill-rule:nonzero;stroke:none"
         d="m 1768.82,1352.42 c -261.01,-23.44 -447.86,-131.51 -447.86,-131.51 77.29,14.6 353.55,-327.269 424.58,-590.941 131.03,48.582 283.82,81.66 446.78,107.511 -98.7,271.76 -279.19,579.61 -423.5,614.94" /><path
         id="path110"
         style="fill:#a4c3e9;fill-opacity:1;fill-rule:nonzero;stroke:none"
         d="m 1745.54,629.969 c -29.65,110.062 -95.04,233.711 -166.81,339.41 -17.98,26.492 -36.4,51.891 -54.72,75.621 -38.2,49.47 -76.1,91.85 -109.55,122.67 100.44,39.7 247,83.54 317.32,91.95 v 0 0 c -16.75,15.5 -23.4,29.66 -23.39,42.04 0.04,27.23 32.36,45.79 60.43,50.76 v 0 0 0 0 c 144.31,-35.33 324.8,-343.18 423.5,-614.94 -34.04,-5.402 -67.65,-11.121 -100.7,-17.218 -25.74,-4.762 -51.13,-9.75 -76.14,-15.012 -96.66,-20.34 -187.6,-44.75 -269.94,-75.281" /><path
         id="path112"
         style="fill:#406fbf;fill-opacity:1;fill-rule:nonzero;stroke:none"
         d="m 1768.82,1352.42 c -170.8,19.28 -448.12,-123.72 -448.12,-123.72 -49.13,-31.33 -35.79,-90.11 -8.98,-114.9 25.72,36.9 312.33,132.94 420.06,145.82 -53.61,49.59 -3.8,85.56 37.04,92.8" /><path
         id="path114"
         style="fill:#5d87cd;fill-opacity:1;fill-rule:nonzero;stroke:none"
         d="m 1311.72,1113.8 c -13.8,12.76 -24.03,34.52 -24.01,56.91 0.02,21.11 9.15,42.78 32.99,57.99 0,0 243.4,125.51 414.59,125.51 11.53,0 22.75,-0.57 33.53,-1.79 -28.07,-4.97 -60.39,-23.53 -60.43,-50.76 -0.01,-12.38 6.64,-26.54 23.39,-42.04 -70.32,-8.41 -216.88,-52.25 -317.32,-91.95 -53.43,-21.12 -93.81,-41.06 -102.74,-53.87" /><path
         id="path116"
         style="fill:#17282f;fill-opacity:1;fill-rule:nonzero;stroke:none"
         d="m 1516.56,935.801 c -14.66,0 -29.01,7.168 -37.61,20.347 -32.53,49.842 -12.21,125.902 -7.81,140.642 7.09,23.74 32.07,37.22 55.82,30.13 23.71,-7.08 37.2,-32.02 30.16,-55.73 -7.33,-25.1 -8.81,-57.17 -3.04,-66.02 13.54,-20.74 7.69,-48.529 -13.05,-62.08 -7.57,-4.93 -16.07,-7.289 -24.47,-7.289" /><path
         id="path118"
         style="fill:#406fbf;fill-opacity:1;fill-rule:nonzero;stroke:none"
         d="m 1363.25,2960.63 v 94.11 l -79.97,-94.11 z m 0,-64.45 H 1211.9 v 68.33 l 151.35,179.89 h 72.41 v -183.77 h 37.53 v -64.45 h -37.53 v -55.89 h -72.41 v 55.89" /><path
         id="path120"
         style="fill:#406fbf;fill-opacity:1;fill-rule:nonzero;stroke:none"
         d="m 1581.49,2990.82 c 0,-38.08 3.37,-64.08 10.1,-78.02 6.73,-13.93 16.49,-20.91 29.27,-20.91 8.43,0 15.74,2.96 21.93,8.88 6.18,5.91 10.74,15.26 13.66,28.05 2.93,12.77 4.38,32.69 4.38,59.75 0,39.71 -3.36,66.4 -10.09,80.06 -6.73,13.66 -16.83,20.5 -30.29,20.5 -13.74,0 -23.66,-6.97 -29.78,-20.91 -6.11,-13.93 -9.18,-39.73 -9.18,-77.4 z m -82.4,0.2 c 0,56.84 10.23,96.62 30.7,119.32 20.46,22.71 51.64,34.06 93.52,34.06 20.12,0 36.64,-2.48 49.56,-7.44 12.92,-4.96 23.46,-11.42 31.62,-19.37 8.16,-7.96 14.58,-16.32 19.27,-25.09 4.69,-8.77 8.47,-19 11.32,-30.7 5.57,-22.3 8.36,-45.55 8.36,-69.76 0,-54.25 -9.18,-93.96 -27.53,-119.11 -18.36,-25.16 -49.97,-37.74 -94.85,-37.74 -25.16,0 -45.48,4.02 -60.98,12.04 -15.5,8.02 -28.22,19.78 -38.15,35.28 -7.2,11.01 -12.81,26.07 -16.82,45.18 -4.02,19.11 -6.02,40.22 -6.02,63.33" /><path
         id="path122"
         style="fill:#406fbf;fill-opacity:1;fill-rule:nonzero;stroke:none"
         d="m 1860.11,2990.82 c 0,-38.08 3.37,-64.08 10.1,-78.02 6.73,-13.93 16.48,-20.91 29.27,-20.91 8.43,0 15.73,2.96 21.93,8.88 6.18,5.91 10.73,15.26 13.66,28.05 2.92,12.77 4.38,32.69 4.38,59.75 0,39.71 -3.36,66.4 -10.09,80.06 -6.73,13.66 -16.83,20.5 -30.29,20.5 -13.74,0 -23.66,-6.97 -29.78,-20.91 -6.12,-13.93 -9.18,-39.73 -9.18,-77.4 z m -82.4,0.2 c 0,56.84 10.23,96.62 30.7,119.32 20.46,22.71 51.63,34.06 93.51,34.06 20.13,0 36.65,-2.48 49.57,-7.44 12.91,-4.96 23.46,-11.42 31.62,-19.37 8.15,-7.96 14.58,-16.32 19.27,-25.09 4.69,-8.77 8.46,-19 11.32,-30.7 5.57,-22.3 8.36,-45.55 8.36,-69.76 0,-54.25 -9.18,-93.96 -27.53,-119.11 -18.36,-25.16 -49.97,-37.74 -94.85,-37.74 -25.16,0 -45.48,4.02 -60.98,12.04 -15.51,8.02 -28.22,19.78 -38.15,35.28 -7.21,11.01 -12.82,26.07 -16.82,45.18 -4.02,19.11 -6.02,40.22 -6.02,63.33" /><path
         id="path124"
         style="fill:#17282f;fill-opacity:1;fill-rule:nonzero;stroke:none"
         d="m 2208.9,3139.3 h 247.61 v -63.83 H 2301.5 v -47.53 h 143.79 v -60.99 H 2301.5 v -58.94 H 2461 v -67.72 h -252.1 v 299.01" /><path
         id="path126"
         style="fill:#17282f;fill-opacity:1;fill-rule:nonzero;stroke:none"
         d="m 2604.79,3018.15 h 38.96 c 4.21,0 12.37,1.36 24.48,4.09 6.12,1.22 11.12,4.34 14.99,9.37 3.87,5.03 5.81,10.81 5.81,17.34 0,9.65 -3.06,17.07 -9.18,22.23 -6.11,5.17 -17.61,7.75 -34.46,7.75 h -40.6 z m -92.8,-177.86 v 299.01 h 154 c 28.55,0 50.37,-2.44 65.47,-7.34 15.09,-4.89 27.26,-13.96 36.51,-27.23 9.24,-13.26 13.87,-29.4 13.87,-48.43 0,-16.59 -3.54,-30.91 -10.61,-42.94 -7.08,-12.03 -16.81,-21.8 -29.19,-29.27 -7.89,-4.76 -18.71,-8.7 -32.45,-11.84 11.01,-3.67 19.02,-7.35 24.05,-11.01 3.4,-2.45 8.33,-7.7 14.78,-15.72 6.46,-8.04 10.77,-14.23 12.95,-18.59 l 44.74,-86.64 h -104.4 l -49.39,91.38 c -6.26,11.82 -11.83,19.51 -16.72,23.05 -6.67,4.61 -14.22,6.93 -22.65,6.93 h -8.16 v -121.36 h -92.8" /><path
         id="path128"
         style="fill:#17282f;fill-opacity:1;fill-rule:nonzero;stroke:none"
         d="m 2929.71,3018.15 h 38.96 c 4.21,0 12.37,1.36 24.47,4.09 6.12,1.22 11.12,4.34 14.99,9.37 3.88,5.03 5.82,10.81 5.82,17.34 0,9.65 -3.06,17.07 -9.18,22.23 -6.12,5.17 -17.61,7.75 -34.47,7.75 h -40.59 z m -92.81,-177.86 v 299.01 h 154 c 28.56,0 50.38,-2.44 65.48,-7.34 15.09,-4.89 27.26,-13.96 36.51,-27.23 9.24,-13.26 13.86,-29.4 13.86,-48.43 0,-16.59 -3.53,-30.91 -10.61,-42.94 -7.07,-12.03 -16.8,-21.8 -29.18,-29.27 -7.89,-4.76 -18.71,-8.7 -32.45,-11.84 11,-3.67 19.02,-7.35 24.05,-11.01 3.4,-2.45 8.32,-7.7 14.78,-15.72 6.45,-8.04 10.77,-14.23 12.94,-18.59 l 44.75,-86.64 h -104.4 l -49.39,91.38 c -6.26,11.82 -11.83,19.51 -16.73,23.05 -6.66,4.61 -14.21,6.93 -22.64,6.93 h -8.16 v -121.36 h -92.81" /><path
         id="path130"
         style="fill:#17282f;fill-opacity:1;fill-rule:nonzero;stroke:none"
         d="m 3234.23,2989.19 c 0,-30.19 5.61,-51.88 16.83,-65.07 11.22,-13.19 26.48,-19.79 45.79,-19.79 19.85,0 35.22,6.46 46.09,19.38 10.88,12.92 16.32,36.1 16.32,69.56 0,28.14 -5.68,48.71 -17.03,61.7 -11.35,12.98 -26.75,19.47 -46.19,19.47 -18.64,0 -33.59,-6.59 -44.88,-19.78 -11.29,-13.19 -16.93,-35.01 -16.93,-65.47 z m -92.39,0.41 c 0,48.81 13.59,86.81 40.79,114.01 27.19,27.2 65.07,40.79 113.61,40.79 49.77,0 88.11,-13.36 115.03,-40.08 26.93,-26.71 40.39,-64.15 40.39,-112.28 0,-34.94 -5.88,-63.6 -17.64,-85.97 -11.76,-22.37 -28.76,-39.77 -50.99,-52.21 -22.23,-12.45 -49.94,-18.67 -83.12,-18.67 -33.72,0 -61.63,5.38 -83.73,16.12 -22.1,10.74 -40.01,27.73 -53.74,50.98 -13.74,23.26 -20.6,52.36 -20.6,87.31" /><path
         id="path132"
         style="fill:#17282f;fill-opacity:1;fill-rule:nonzero;stroke:none"
         d="m 3595.46,3018.15 h 38.95 c 4.22,0 12.38,1.36 24.48,4.09 6.12,1.22 11.12,4.34 14.99,9.37 3.88,5.03 5.82,10.81 5.82,17.34 0,9.65 -3.06,17.07 -9.18,22.23 -6.12,5.17 -17.61,7.75 -34.47,7.75 h -40.59 z m -92.81,-177.86 v 299.01 h 154 c 28.56,0 50.38,-2.44 65.47,-7.34 15.1,-4.89 27.26,-13.96 36.51,-27.23 9.25,-13.26 13.87,-29.4 13.87,-48.43 0,-16.59 -3.54,-30.91 -10.61,-42.94 -7.08,-12.03 -16.81,-21.8 -29.18,-29.27 -7.9,-4.76 -18.71,-8.7 -32.45,-11.84 11,-3.67 19.02,-7.35 24.05,-11.01 3.4,-2.45 8.32,-7.7 14.78,-15.72 6.45,-8.04 10.76,-14.23 12.94,-18.59 l 44.74,-86.64 h -104.4 l -49.39,91.38 c -6.25,11.82 -11.83,19.51 -16.72,23.05 -6.67,4.61 -14.21,6.93 -22.64,6.93 h -8.16 v -121.36 h -92.81" /><path
         id="path134"
         style="fill:#17282f;fill-opacity:1;fill-rule:nonzero;stroke:none"
         d="m 1652.37,3331.68 h 55.48 c 9.52,0 16.21,0.35 20.07,1.06 6.78,1.21 12.46,3.24 17.02,6.08 4.56,2.84 8.31,6.97 11.25,12.39 2.94,5.42 4.41,11.68 4.41,18.77 0,8.31 -2.13,15.53 -6.39,21.66 -4.25,6.13 -10.16,10.44 -17.71,12.92 -7.54,2.48 -18.41,3.72 -32.6,3.72 h -51.53 z m 0,102.9 h 48.19 c 13.07,0 22.44,0.86 28.12,2.59 7.49,2.22 13.14,5.92 16.95,11.09 3.79,5.17 5.69,11.65 5.69,19.45 0,7.41 -1.77,13.91 -5.32,19.54 -3.54,5.62 -8.61,9.47 -15.2,11.55 -6.59,2.08 -17.88,3.11 -33.89,3.11 h -44.54 z m -29.49,-129.2 v 222.83 h 83.6 c 17.03,0 30.68,-2.25 40.97,-6.76 10.28,-4.51 18.34,-11.45 24.17,-20.82 5.82,-9.38 8.74,-19.18 8.74,-29.42 0,-9.52 -2.59,-18.5 -7.76,-26.91 -5.16,-8.4 -12.97,-15.19 -23.41,-20.35 13.48,-3.96 23.84,-10.7 31.09,-20.23 7.24,-9.52 10.87,-20.77 10.87,-33.74 0,-10.44 -2.2,-20.14 -6.61,-29.11 -4.41,-8.97 -9.86,-15.88 -16.35,-20.74 -6.48,-4.87 -14.61,-8.55 -24.39,-11.03 -9.78,-2.48 -21.76,-3.72 -35.95,-3.72 h -84.97" /><path
         id="path136"
         style="fill:#17282f;fill-opacity:1;fill-rule:nonzero;stroke:none"
         d="m 1931.29,3386.39 c -9.93,-4.05 -24.83,-7.5 -44.69,-10.33 -11.24,-1.62 -19.2,-3.44 -23.86,-5.47 -4.66,-2.03 -8.26,-5 -10.79,-8.89 -2.54,-3.91 -3.81,-8.24 -3.81,-13 0,-7.29 2.77,-13.38 8.29,-18.24 5.52,-4.87 13.6,-7.3 24.24,-7.3 10.54,0 19.92,2.31 28.12,6.92 8.21,4.61 14.24,10.92 18.09,18.92 2.94,6.18 4.41,15.3 4.41,27.37 z m 2.28,-61.1 c -10.13,-8.61 -19.89,-14.7 -29.26,-18.24 -9.37,-3.55 -19.43,-5.32 -30.17,-5.32 -17.73,0 -31.37,4.33 -40.89,13 -9.52,8.66 -14.29,19.73 -14.29,33.21 0,7.91 1.8,15.13 5.4,21.66 3.59,6.53 8.31,11.78 14.14,15.73 5.82,3.96 12.38,6.94 19.68,8.97 5.37,1.42 13.48,2.79 24.32,4.11 22.09,2.63 38.35,5.77 48.79,9.42 0.1,3.74 0.15,6.12 0.15,7.14 0,11.15 -2.58,19 -7.75,23.57 -6.99,6.17 -17.38,9.26 -31.16,9.26 -12.87,0 -22.37,-2.25 -28.5,-6.76 -6.13,-4.51 -10.67,-12.49 -13.61,-23.94 l -26.74,3.65 c 2.43,11.45 6.43,20.7 12,27.73 5.57,7.05 13.63,12.48 24.17,16.27 10.54,3.8 22.75,5.7 36.63,5.7 13.78,0 24.98,-1.62 33.59,-4.86 8.62,-3.25 14.95,-7.32 19.01,-12.24 4.05,-4.91 6.89,-11.12 8.51,-18.62 0.91,-4.66 1.37,-13.07 1.37,-25.23 v -36.48 c 0,-25.43 0.58,-41.53 1.74,-48.25 1.17,-6.75 3.47,-13.21 6.92,-19.39 h -28.58 c -2.83,5.67 -4.66,12.32 -5.47,19.91" /><path
         id="path138"
         style="fill:#17282f;fill-opacity:1;fill-rule:nonzero;stroke:none"
         d="m 2019.6,3385.94 c 0,-20.67 4.36,-36.13 13.08,-46.36 8.71,-10.24 18.99,-15.35 30.85,-15.35 11.96,0 22.12,4.89 30.48,14.66 8.36,9.78 12.54,24.7 12.54,44.77 0,22.09 -4.26,38.3 -12.77,48.64 -8.51,10.34 -19,15.5 -31.47,15.5 -12.15,0 -22.31,-4.96 -30.47,-14.89 -8.16,-9.93 -12.24,-25.59 -12.24,-46.97 z m 86.49,-80.56 v 20.37 c -10.24,-16.02 -25.28,-24.02 -45.14,-24.02 -12.87,0 -24.7,3.55 -35.49,10.64 -10.8,7.09 -19.16,17.01 -25.08,29.72 -5.93,12.71 -8.9,27.33 -8.9,43.85 0,16.11 2.69,30.73 8.06,43.85 5.37,13.12 13.43,23.18 24.17,30.17 10.74,6.99 22.75,10.49 36.02,10.49 9.73,0 18.4,-2.05 25.99,-6.15 7.61,-4.1 13.79,-9.46 18.55,-16.04 v 79.95 h 27.2 v -222.83 h -25.38" /><path
         id="path140"
         style="fill:#17282f;fill-opacity:1;fill-rule:nonzero;stroke:none"
         d="m 2294.42,3429.87 h 63.39 c 13.47,0 24.02,1.39 31.61,4.18 7.6,2.79 13.38,7.24 17.33,13.37 3.95,6.13 5.93,12.79 5.93,19.99 0,10.54 -3.83,19.2 -11.47,26 -7.66,6.79 -19.74,10.17 -36.26,10.17 h -70.53 z m -29.48,-124.49 v 222.83 h 98.8 c 19.85,0 34.96,-2 45.29,-6 10.34,-4.01 18.6,-11.08 24.78,-21.21 6.18,-10.13 9.27,-21.33 9.27,-33.59 0,-15.81 -5.12,-29.13 -15.35,-39.97 -10.24,-10.85 -26.05,-17.73 -47.43,-20.67 7.81,-3.75 13.73,-7.45 17.79,-11.11 8.61,-7.9 16.77,-17.78 24.47,-29.64 l 38.76,-60.64 h -37.09 l -29.48,46.36 c -8.62,13.38 -15.72,23.61 -21.29,30.7 -5.57,7.1 -10.56,12.06 -14.97,14.9 -4.41,2.84 -8.89,4.81 -13.45,5.93 -3.35,0.7 -8.81,1.07 -16.42,1.07 h -34.2 v -98.96 h -29.48" /><path
         id="path142"
         style="fill:#17282f;fill-opacity:1;fill-rule:nonzero;stroke:none"
         d="m 2506.46,3401.6 h 90.14 c -1.21,13.58 -4.66,23.76 -10.34,30.55 -8.71,10.53 -20.01,15.81 -33.89,15.81 -12.57,0 -23.13,-4.21 -31.69,-12.62 -8.57,-8.42 -13.3,-19.66 -14.22,-33.74 z m 89.84,-44.24 28.27,-3.49 c -4.46,-16.52 -12.72,-29.34 -24.78,-38.46 -12.06,-9.12 -27.46,-13.68 -46.21,-13.68 -23.6,0 -42.33,7.27 -56.16,21.81 -13.83,14.55 -20.75,34.94 -20.75,61.19 0,27.15 7,48.23 20.98,63.23 13.99,14.99 32.12,22.49 54.42,22.49 21.58,0 39.21,-7.34 52.89,-22.04 13.68,-14.69 20.52,-35.36 20.52,-62.02 0,-1.62 -0.05,-4.05 -0.15,-7.29 h -120.38 c 1.01,-17.73 6.02,-31.31 15.05,-40.73 9.01,-9.42 20.26,-14.14 33.74,-14.14 10.03,0 18.59,2.63 25.68,7.9 7.1,5.27 12.72,13.68 16.88,25.23" /><path
         id="path144"
         style="fill:#17282f;fill-opacity:1;fill-rule:nonzero;stroke:none"
         d="m 2677.47,3386.55 c 0,-20.78 4.35,-36.35 13.07,-46.75 8.71,-10.38 19.15,-15.57 31.31,-15.57 11.65,0 21.69,4.94 30.1,14.82 8.41,9.88 12.62,24.9 12.62,45.07 0,21.47 -4.44,37.64 -13.31,48.49 -8.86,10.84 -19.28,16.26 -31.23,16.26 -11.86,0 -21.91,-5.04 -30.18,-15.13 -8.25,-10.08 -12.38,-25.81 -12.38,-47.19 z m 84.36,-143.03 v 79.04 c -4.26,-5.99 -10.21,-10.95 -17.86,-14.9 -7.66,-3.95 -15.79,-5.93 -24.4,-5.93 -19.15,0 -35.64,7.65 -49.47,22.96 -13.84,15.29 -20.75,36.27 -20.75,62.93 0,16.21 2.81,30.75 8.43,43.62 5.63,12.86 13.78,22.62 24.48,29.26 10.68,6.63 22.42,9.95 35.18,9.95 19.97,0 35.67,-8.41 47.13,-25.23 v 21.58 h 24.62 v -223.28 h -27.36" /><path
         id="path146"
         style="fill:#17282f;fill-opacity:1;fill-rule:nonzero;stroke:none"
         d="m 2937.85,3305.38 v 23.71 c -12.57,-18.24 -29.65,-27.36 -51.23,-27.36 -9.53,0 -18.42,1.82 -26.67,5.48 -8.27,3.64 -14.39,8.23 -18.4,13.75 -4,5.52 -6.81,12.28 -8.43,20.29 -1.12,5.37 -1.67,13.89 -1.67,25.54 v 100.01 h 27.35 v -89.53 c 0,-14.28 0.56,-23.91 1.68,-28.87 1.72,-7.2 5.36,-12.85 10.94,-16.95 5.57,-4.11 12.47,-6.16 20.67,-6.16 8.21,0 15.91,2.1 23.11,6.31 7.19,4.2 12.29,9.93 15.27,17.18 2.99,7.24 4.49,17.75 4.49,31.53 v 86.49 h 27.36 v -161.42 h -24.47" /><path
         id="path148"
         style="fill:#17282f;fill-opacity:1;fill-rule:nonzero;stroke:none"
         d="m 3025.85,3401.6 h 90.14 c -1.21,13.58 -4.66,23.76 -10.34,30.55 -8.71,10.53 -20.01,15.81 -33.89,15.81 -12.57,0 -23.13,-4.21 -31.69,-12.62 -8.57,-8.42 -13.3,-19.66 -14.22,-33.74 z m 89.84,-44.24 28.27,-3.49 c -4.46,-16.52 -12.72,-29.34 -24.78,-38.46 -12.06,-9.12 -27.46,-13.68 -46.21,-13.68 -23.6,0 -42.33,7.27 -56.16,21.81 -13.83,14.55 -20.75,34.94 -20.75,61.19 0,27.15 7,48.23 20.98,63.23 13.99,14.99 32.12,22.49 54.42,22.49 21.58,0 39.21,-7.34 52.89,-22.04 13.68,-14.69 20.52,-35.36 20.52,-62.02 0,-1.62 -0.05,-4.05 -0.15,-7.29 h -120.38 c 1.01,-17.73 6.02,-31.31 15.04,-40.73 9.02,-9.42 20.27,-14.14 33.75,-14.14 10.03,0 18.59,2.63 25.68,7.9 7.1,5.27 12.72,13.68 16.88,25.23" /><path
         id="path150"
         style="fill:#17282f;fill-opacity:1;fill-rule:nonzero;stroke:none"
         d="m 3167.37,3353.56 27.05,4.26 c 1.53,-10.85 5.76,-19.15 12.7,-24.93 6.94,-5.77 16.64,-8.66 29.11,-8.66 12.56,0 21.89,2.56 27.96,7.67 6.08,5.12 9.12,11.13 9.12,18.01 0,6.18 -2.68,11.05 -8.05,14.6 -3.75,2.43 -13.08,5.52 -27.97,9.27 -20.06,5.07 -33.97,9.45 -41.72,13.15 -7.76,3.7 -13.64,8.81 -17.64,15.36 -4,6.53 -6,13.75 -6,21.66 0,7.18 1.64,13.84 4.94,19.98 3.29,6.13 7.77,11.21 13.45,15.28 4.26,3.13 10.06,5.79 17.4,7.98 7.35,2.17 15.23,3.26 23.64,3.26 12.67,0 23.79,-1.82 33.37,-5.47 9.57,-3.65 16.64,-8.59 21.2,-14.82 4.56,-6.23 7.7,-14.57 9.42,-25 l -26.75,-3.65 c -1.22,8.3 -4.74,14.79 -10.56,19.45 -5.83,4.67 -14.07,7 -24.71,7 -12.56,0 -21.53,-2.08 -26.9,-6.23 -5.37,-4.16 -8.05,-9.03 -8.05,-14.6 0,-3.55 1.11,-6.74 3.34,-9.57 2.23,-2.94 5.73,-5.37 10.49,-7.3 2.74,-1.01 10.79,-3.35 24.17,-6.99 19.35,-5.16 32.85,-9.4 40.5,-12.7 7.66,-3.28 13.66,-8.08 18.02,-14.36 4.35,-6.28 6.53,-14.08 6.53,-23.41 0,-9.12 -2.66,-17.7 -7.98,-25.76 -5.32,-8.06 -12.99,-14.29 -23.03,-18.69 -10.03,-4.42 -21.38,-6.62 -34.04,-6.62 -20.98,0 -36.97,4.35 -47.96,13.07 -10.99,8.72 -18.01,21.63 -21.05,38.76" /><path
         id="path152"
         style="fill:#17282f;fill-opacity:1;fill-rule:nonzero;stroke:none"
         d="m 3393.7,3329.85 3.95,-24.17 c -7.7,-1.62 -14.59,-2.43 -20.67,-2.43 -9.93,0 -17.63,1.57 -23.11,4.72 -5.47,3.13 -9.32,7.26 -11.55,12.38 -2.23,5.12 -3.34,15.89 -3.34,32.31 v 92.87 h -20.06 v 21.27 h 20.06 v 39.98 l 27.21,16.41 v -56.39 h 27.51 v -21.27 h -27.51 v -94.4 c 0,-7.8 0.48,-12.82 1.44,-15.05 0.96,-2.22 2.53,-4 4.71,-5.32 2.18,-1.32 5.3,-1.97 9.35,-1.97 3.04,0 7.04,0.35 12.01,1.06" /></g></g></svg>